<svg xmlns="http://www.w3.org/2000/svg" xmlns:xlink="http://www.w3.org/1999/xlink" version="1.1" x="0px" y="0px" viewBox="0 0 50 62.5" style="enable-background:new 0 0 50 50;" xml:space="preserve"><style type="text/css">
	.st0{fill:none;stroke:#000000;stroke-width:2;stroke-miterlimit:10;}
	.st1{fill:none;stroke:#000000;stroke-width:2;stroke-miterlimit:10;stroke-dasharray:2,3;}
	.st2{fill:none;stroke:#000000;stroke-width:2;stroke-linejoin:round;stroke-miterlimit:10;}
	.st3{fill:none;stroke:#000000;stroke-width:2;stroke-miterlimit:10;stroke-dasharray:2,2;}
	.st4{fill:none;stroke:#000000;stroke-width:2;stroke-linejoin:round;stroke-miterlimit:10;stroke-dasharray:2,2;}
	.st5{fill:none;stroke:#000000;stroke-width:2;stroke-miterlimit:10;stroke-dasharray:1.7143,1.7143;}
	.st6{fill:none;stroke:#000000;stroke-width:2;stroke-linecap:round;stroke-miterlimit:10;}
	.st7{fill:none;stroke:#000000;stroke-width:2;stroke-linecap:round;stroke-linejoin:round;stroke-miterlimit:10;}
</style><g><path class="st0" d="M28,41c0-6.8,7-10,7-10l-8-18h-2"/><path class="st0" d="M22,41c0-6.8-7-10-7-10l8-18h2"/><line class="st0" x1="25" y1="13" x2="25" y2="24"/><rect x="14" y="41" class="st0" width="22" height="7"/><circle class="st0" cx="25" cy="26" r="2"/><g><g><rect x="38" y="19" class="st0" width="4" height="4"/><rect x="23" y="2" class="st0" width="4" height="4"/><rect x="8" y="19" class="st0" width="4" height="4"/><path class="st0" d="M23,4.1c-7.3,1-13,7.3-13,14.9"/><path class="st0" d="M40,19c0-7.6-5.7-13.9-13-14.9"/></g><g><line class="st0" x1="27" y1="4" x2="44" y2="4"/><rect x="44" y="2" class="st0" width="4" height="4"/></g><g><line class="st0" x1="23" y1="4" x2="6" y2="4"/><rect x="2" y="2" transform="matrix(-1 4.547461e-11 -4.547461e-11 -1 8 8)" class="st0" width="4" height="4"/></g></g></g><text x="0" y="65" fill="#000000" font-size="5px" font-weight="bold" font-family="'Helvetica Neue', Helvetica, Arial-Unicode, Arial, Sans-serif">Created by DinosoftLab</text><text x="0" y="70" fill="#000000" font-size="5px" font-weight="bold" font-family="'Helvetica Neue', Helvetica, Arial-Unicode, Arial, Sans-serif">from the Noun Project</text></svg>