<svg xmlns="http://www.w3.org/2000/svg" xmlns:xlink="http://www.w3.org/1999/xlink" version="1.1" x="0px" y="0px" viewBox="0 0 50 62.5" style="enable-background:new 0 0 50 50;" xml:space="preserve"><style type="text/css">
	.st0{fill:none;stroke:#000000;stroke-width:2;stroke-miterlimit:10;}
	.st1{fill:none;stroke:#000000;stroke-width:2;stroke-linejoin:round;stroke-miterlimit:10;}
	.st2{fill:none;stroke:#000000;stroke-width:2;stroke-miterlimit:10;stroke-dasharray:2,2;}
	.st3{fill:none;stroke:#000000;stroke-width:2;stroke-linecap:round;stroke-linejoin:round;stroke-miterlimit:10;}
	.st4{fill:none;stroke:#000000;stroke-width:2;stroke-linecap:round;stroke-miterlimit:10;}
	.st5{fill:none;stroke:#000000;stroke-width:2;stroke-linejoin:bevel;stroke-miterlimit:10;}
	.st6{fill:none;stroke:#000000;stroke-width:2;stroke-linejoin:round;stroke-miterlimit:10;stroke-dasharray:2,2;}
	.st7{fill:none;stroke:#000000;stroke-width:2;stroke-miterlimit:10;stroke-dasharray:2,3;}
</style><g><path class="st0" d="M48,28v-6l-5.4-0.9c-0.5-2.1-1.3-4-2.4-5.7l3.2-4.5l-4.2-4.2l-4.5,3.2c-1.7-1.1-3.7-1.9-5.7-2.4L28,2h-6   l-0.9,5.4c-2.1,0.5-4,1.3-5.7,2.4l-4.5-3.2l-4.2,4.2l3.2,4.5c-1.1,1.7-1.9,3.7-2.4,5.7L2,22v6l5.4,0.9c0.5,2.1,1.3,4,2.4,5.7   l-3.2,4.5l4.2,4.2l4.5-3.2c1.7,1.1,3.7,1.9,5.7,2.4L22,48h6l0.9-5.4c2.1-0.5,4-1.3,5.7-2.4l4.5,3.2l4.2-4.2l-3.2-4.5   c1.1-1.7,1.9-3.7,2.4-5.7L48,28z"/><circle class="st0" cx="25" cy="25" r="9"/></g><text x="0" y="65" fill="#000000" font-size="5px" font-weight="bold" font-family="'Helvetica Neue', Helvetica, Arial-Unicode, Arial, Sans-serif">Created by DinosoftLab</text><text x="0" y="70" fill="#000000" font-size="5px" font-weight="bold" font-family="'Helvetica Neue', Helvetica, Arial-Unicode, Arial, Sans-serif">from the Noun Project</text></svg>